<svg width="235" height="169" viewBox="0 0 235 169" fill="none" xmlns="http://www.w3.org/2000/svg">
<path d="M21.761 132.305C22.6448 131.603 23.244 130.542 23.3717 129.428C23.5018 128.292 23.1769 127.147 22.4533 126.261C21.7512 125.377 20.6907 124.778 19.5763 124.65C18.4404 124.52 17.2958 124.845 16.4096 125.569C15.5257 126.271 14.9265 127.331 14.7989 128.446C14.6688 129.582 14.9937 130.726 15.7172 131.613C16.4194 132.496 17.4798 133.096 18.5943 133.223C19.7112 133.329 20.8772 133.007 21.761 132.305Z" fill="#4F4F4F" fill-opacity="0.3"/>
<path d="M56.5889 104.616C58.476 103.117 58.7853 100.416 57.3075 98.5319C55.8273 96.6687 53.1055 96.3569 51.2423 97.8371L51.2184 97.8561C49.3552 99.3363 49.0434 102.058 50.5236 103.921C52.0014 105.806 54.7233 106.118 56.5889 104.616Z" fill="#4F4F4F" fill-opacity="0.3"/>
<path d="M39.1749 118.472C41.062 116.972 41.3713 114.272 39.8935 112.387C38.4133 110.524 35.6915 110.212 33.8283 111.693L33.8044 111.712C31.9412 113.192 31.6294 115.914 33.1096 117.777C34.5898 119.64 37.3117 119.952 39.1749 118.472Z" fill="#4F4F4F" fill-opacity="0.3"/>
<path d="M74.0275 90.7839C74.9114 90.0817 75.5105 89.0213 75.6382 87.9068C75.7683 86.7709 75.4434 85.6264 74.7198 84.7401C74.0177 83.8563 72.9572 83.2571 71.8428 83.1294C70.7069 82.9993 69.5623 83.3242 68.676 84.0478C67.7922 84.75 67.1931 85.8104 67.0654 86.9248C66.9353 88.0607 67.2601 89.2053 67.9837 90.0916C68.6859 90.9754 69.7463 91.5746 70.8608 91.7022C71.9777 91.8084 73.1223 91.4836 74.0275 90.7839Z" fill="#4F4F4F" fill-opacity="0.3"/>
<path d="M91.4391 76.9497C92.3229 76.2475 92.9221 75.1871 93.0498 74.0726C93.1799 72.9367 92.855 71.7921 92.1314 70.9058C91.4293 70.022 90.3688 69.4229 89.2544 69.2952C88.1185 69.1651 86.9739 69.4899 86.0876 70.2135C85.2038 70.9157 84.6046 71.9761 84.477 73.0906C84.3469 74.2265 84.6717 75.3711 85.3953 76.2573C86.0974 77.1412 87.1579 77.7403 88.2724 77.868C89.3893 77.9742 90.5553 77.6518 91.4391 76.9497Z" fill="#4F4F4F" fill-opacity="0.3"/>
<path d="M126.265 49.2814C128.152 47.7822 128.461 45.0818 126.983 43.1972C125.503 41.334 122.781 41.0222 120.918 42.5024L120.894 42.5214C119.031 44.0016 118.719 46.7234 120.199 48.5866C121.68 50.4498 124.401 50.7616 126.265 49.2814Z" fill="#4F4F4F" fill-opacity="0.3"/>
<path d="M108.853 63.1158C110.74 61.6167 111.049 58.9162 109.572 57.0316C108.091 55.1684 105.37 54.8567 103.506 56.3369L103.483 56.3558C101.619 57.836 101.308 60.5579 102.788 62.4211C104.268 64.2843 106.99 64.596 108.853 63.1158Z" fill="#4F4F4F" fill-opacity="0.3"/>
<path d="M143.706 35.4282C144.589 34.726 145.189 33.6656 145.316 32.5511C145.446 31.4152 145.121 30.2706 144.398 29.3843C143.696 28.5005 142.635 27.9014 141.521 27.7737C140.385 27.6436 139.24 27.9685 138.354 28.692C137.47 29.3942 136.871 30.4546 136.744 31.5691C136.613 32.705 136.938 33.8496 137.662 34.7359C138.364 35.6197 139.424 36.2188 140.539 36.3465C141.653 36.4742 142.8 36.1279 143.706 35.4282Z" fill="#4F4F4F" fill-opacity="0.3"/>
<path d="M10.7334 118.427C11.6172 117.725 12.2164 116.664 12.344 115.55C12.4741 114.414 12.1493 113.269 11.4257 112.383C10.7236 111.499 9.66311 110.9 8.54864 110.772C7.41275 110.642 6.26816 110.967 5.38189 111.691C4.49807 112.393 3.89891 113.453 3.77125 114.568C3.64113 115.704 3.96599 116.848 4.68957 117.735C5.39171 118.618 6.45217 119.218 7.56664 119.345C8.68355 119.452 9.84958 119.129 10.7334 118.427Z" fill="#4F4F4F" fill-opacity="0.3"/>
<path d="M45.5589 90.7589C47.4459 89.2597 47.7553 86.5593 46.2775 84.6747C44.7973 82.8115 42.0754 82.4997 40.2123 83.9799L40.1884 83.9989C38.3252 85.4791 38.0134 88.2009 39.4936 90.0641C40.9738 91.9273 43.6957 92.2391 45.5589 90.7589Z" fill="#4F4F4F" fill-opacity="0.3"/>
<path d="M28.1473 104.593C30.0343 103.094 30.3437 100.394 28.8659 98.5092C27.3857 96.646 24.6639 96.3342 22.8007 97.8144L22.7768 97.8334C20.9136 99.3136 20.6018 102.035 22.082 103.899C23.5622 105.762 26.2841 106.074 28.1473 104.593Z" fill="#4F4F4F" fill-opacity="0.3"/>
<path d="M62.9999 76.906C63.8837 76.2038 64.4829 75.1434 64.6105 74.0289C64.7407 72.893 64.4158 71.7485 63.6922 70.8622C62.9901 69.9784 61.9296 69.3792 60.8152 69.2515C59.6793 69.1214 58.5347 69.4463 57.6484 70.1699C56.7646 70.872 56.1654 71.9324 56.0378 73.0469C55.9076 74.1828 56.2325 75.3274 56.9561 76.2136C57.6582 77.0975 58.7187 77.6966 59.8331 77.8243C60.9476 77.9519 62.1161 77.6081 62.9999 76.906Z" fill="#4F4F4F" fill-opacity="0.3"/>
<path d="M80.4115 63.0717C81.2953 62.3696 81.8945 61.3091 82.0221 60.1947C82.1522 59.0588 81.8274 57.9142 81.1038 57.0279C80.3802 56.1416 79.3412 55.5449 78.2267 55.4173C77.0909 55.2872 75.9463 55.612 75.06 56.3356C74.1762 57.0377 73.577 58.0982 73.4493 59.2127C73.3192 60.3486 73.6441 61.4931 74.3677 62.3794C75.0698 63.2632 76.1303 63.8624 77.2447 63.9901C78.3617 64.0963 79.5277 63.7739 80.4115 63.0717Z" fill="#4F4F4F" fill-opacity="0.3"/>
<path d="M115.237 35.4034C117.124 33.9043 117.433 31.2038 115.956 29.3192C114.475 27.456 111.754 27.1442 109.89 28.6245L109.866 28.6435C108.003 30.1237 107.692 32.8455 109.172 34.7087C110.652 36.5718 113.374 36.8836 115.237 35.4034Z" fill="#4F4F4F" fill-opacity="0.3"/>
<path d="M97.8254 49.2379C99.7124 47.7387 100.022 45.0383 98.544 43.1537C97.0638 41.2905 94.342 40.9787 92.4788 42.4589L92.4549 42.4779C90.5917 43.9581 90.2799 46.68 91.7601 48.5431C93.2403 50.4063 95.9622 50.7181 97.8254 49.2379Z" fill="#4F4F4F" fill-opacity="0.3"/>
<path d="M132.678 21.5503C133.562 20.8481 134.161 19.7876 134.289 18.6732C134.419 17.5373 134.094 16.3927 133.37 15.5064C132.668 14.6226 131.608 14.0234 130.493 13.8958C129.357 13.7657 128.213 14.0905 127.327 14.8141C126.443 15.5163 125.844 16.5767 125.716 17.6912C125.586 18.8271 125.911 19.9717 126.634 20.8579C127.336 21.7418 128.397 22.3409 129.511 22.4686C130.626 22.5962 131.773 22.2499 132.678 21.5503Z" fill="#4F4F4F" fill-opacity="0.3"/>
<path d="M32.7856 146.163C33.6694 145.46 34.2686 144.4 34.3963 143.285C34.5264 142.15 34.2015 141.005 33.4779 140.119C32.7758 139.235 31.7154 138.636 30.6009 138.508C29.465 138.378 28.3204 138.703 27.4341 139.426C26.5503 140.129 25.9512 141.189 25.8235 142.303C25.6934 143.439 26.0182 144.584 26.7418 145.47C27.444 146.354 28.5044 146.953 29.6189 147.081C30.7333 147.209 31.8993 146.886 32.7856 146.163Z" fill="#4F4F4F" fill-opacity="0.3"/>
<path d="M67.6111 118.494C69.4982 116.995 69.8075 114.295 68.3298 112.41C66.8496 110.547 64.1277 110.235 62.2645 111.716L62.2406 111.735C60.3774 113.215 60.0657 115.937 61.5459 117.8C63.0261 119.663 65.7479 119.975 67.6111 118.494Z" fill="#4F4F4F" fill-opacity="0.3"/>
<path d="M50.1982 132.351C52.0853 130.852 52.3946 128.151 50.9169 126.267C49.4367 124.404 46.7148 124.092 44.8516 125.572L44.8278 125.591C42.9646 127.071 42.6528 129.793 44.133 131.656C45.6132 133.519 48.3351 133.831 50.1982 132.351Z" fill="#4F4F4F" fill-opacity="0.3"/>
<path d="M85.0498 104.662C85.9336 103.96 86.5327 102.9 86.6604 101.785C86.7905 100.649 86.4657 99.5048 85.7421 98.6185C85.0399 97.7347 83.9795 97.1355 82.865 97.0078C81.7291 96.8777 80.5845 97.2026 79.6982 97.9262C78.8144 98.6283 78.2153 99.6888 78.0876 100.803C77.9599 101.918 78.2824 103.084 79.0059 103.97C79.7081 104.854 80.7685 105.453 81.883 105.581C82.9999 105.687 84.1445 105.362 85.0498 104.662Z" fill="#4F4F4F" fill-opacity="0.3"/>
<path d="M102.461 90.8278C103.345 90.1257 103.944 89.0652 104.072 87.9508C104.202 86.8149 103.877 85.6703 103.154 84.784C102.451 83.9002 101.391 83.301 100.277 83.1734C99.1407 83.0433 97.9961 83.3681 97.1099 84.0917C96.226 84.7938 95.6269 85.8543 95.4992 86.9688C95.3691 88.1047 95.694 89.2492 96.4175 90.1355C97.1197 91.0193 98.1801 91.6185 99.2946 91.7462C100.412 91.8524 101.578 91.53 102.461 90.8278Z" fill="#4F4F4F" fill-opacity="0.3"/>
<path d="M137.287 63.1598C139.174 61.6606 139.483 58.9602 138.005 57.0756C136.525 55.2124 133.803 54.9006 131.94 56.3808L131.916 56.3998C130.053 57.88 129.741 60.6018 131.222 62.465C132.702 64.3282 135.424 64.64 137.287 63.1598Z" fill="#4F4F4F" fill-opacity="0.3"/>
<path d="M119.876 76.9955C121.763 75.4963 122.073 72.7959 120.595 70.9113C119.115 69.0481 116.393 68.7363 114.53 70.2165L114.506 70.2355C112.643 71.7157 112.331 74.4375 113.811 76.3007C115.291 78.1639 118.013 78.4757 119.876 76.9955Z" fill="#4F4F4F" fill-opacity="0.3"/>
<path d="M154.703 49.3042C155.587 48.602 156.186 47.5416 156.313 46.4271C156.443 45.2912 156.119 44.1466 155.395 43.2603C154.693 42.3765 153.632 41.7774 152.518 41.6497C151.382 41.5196 150.237 41.8444 149.351 42.568C148.465 43.2916 147.868 44.3306 147.741 45.4451C147.613 46.5595 147.935 47.7256 148.659 48.6118C149.361 49.4957 150.421 50.0948 151.536 50.2225C152.65 50.3501 153.819 50.0063 154.703 49.3042Z" fill="#4F4F4F" fill-opacity="0.3"/>
<path d="M78.6374 132.372C80.5244 130.873 80.8338 128.173 79.356 126.288C77.8758 124.425 75.154 124.113 73.2908 125.593L73.2669 125.612C71.4037 127.092 71.0919 129.814 72.5721 131.677C74.0523 133.541 76.7742 133.852 78.6374 132.372Z" fill="#4F4F4F" fill-opacity="0.3"/>
<path d="M61.2234 146.228C63.1104 144.728 63.4198 142.028 61.942 140.143C60.4618 138.28 57.7399 137.968 55.8768 139.449L55.8529 139.468C53.9897 140.948 53.6779 143.67 55.1581 145.533C56.6383 147.396 59.3602 147.708 61.2234 146.228Z" fill="#4F4F4F" fill-opacity="0.3"/>
<path d="M96.076 118.54C96.9598 117.838 97.559 116.777 97.6867 115.663C97.8168 114.527 97.4919 113.382 96.7683 112.496C96.0662 111.612 95.0057 111.013 93.8913 110.886C92.7554 110.755 91.6108 111.08 90.7245 111.804C89.8407 112.506 89.2415 113.566 89.1139 114.681C88.9838 115.817 89.3086 116.961 90.0322 117.848C90.7344 118.732 91.7948 119.331 92.9093 119.458C94.0262 119.565 95.1708 119.24 96.076 118.54Z" fill="#4F4F4F" fill-opacity="0.3"/>
<path d="M113.488 104.706C114.371 104.003 114.971 102.943 115.098 101.828C115.228 100.693 114.904 99.548 114.18 98.6617C113.478 97.7779 112.417 97.1787 111.303 97.0511C110.167 96.9209 109.022 97.2458 108.136 97.9694C107.252 98.6715 106.653 99.732 106.525 100.846C106.395 101.982 106.72 103.127 107.444 104.013C108.146 104.897 109.206 105.496 110.321 105.624C111.438 105.73 112.582 105.405 113.488 104.706Z" fill="#4F4F4F" fill-opacity="0.3"/>
<path d="M148.315 77.0167C150.203 75.5175 150.512 72.8171 149.034 70.9325C147.554 69.0693 144.832 68.7575 142.969 70.2377L142.945 70.2567C141.082 71.7369 140.77 74.4588 142.25 76.3219C143.728 78.2066 146.45 78.5183 148.315 77.0167Z" fill="#4F4F4F" fill-opacity="0.3"/>
<path d="M130.902 90.8719C132.789 89.3728 133.098 86.6723 131.62 84.7877C130.14 82.9245 127.418 82.6128 125.555 84.093L125.531 84.112C123.668 85.5922 123.356 88.314 124.836 90.1772C126.316 92.0404 129.017 92.3497 130.902 90.8719Z" fill="#4F4F4F" fill-opacity="0.3"/>
<path d="M165.729 63.1818C166.613 62.4797 167.212 61.4192 167.34 60.3048C167.47 59.1689 167.145 58.0243 166.421 57.138C165.719 56.2542 164.659 55.655 163.544 55.5274C162.408 55.3973 161.264 55.7221 160.377 56.4457C159.494 57.1478 158.895 58.2083 158.767 59.3228C158.639 60.4372 158.962 61.6033 159.685 62.4895C160.387 63.3733 161.448 63.9725 162.562 64.1002C163.701 64.2088 164.845 63.884 165.729 63.1818Z" fill="#4F4F4F" fill-opacity="0.3"/>
<path d="M89.6647 146.252C91.5518 144.752 91.8611 142.052 90.3834 140.167C88.9032 138.304 86.1813 137.992 84.3181 139.473L84.2942 139.492C82.4311 140.972 82.1193 143.694 83.5995 145.557C85.0797 147.42 87.8015 147.732 89.6647 146.252Z" fill="#4F4F4F" fill-opacity="0.3"/>
<path d="M107.078 132.417C107.962 131.715 108.561 130.654 108.689 129.54C108.817 128.425 108.494 127.259 107.771 126.373C107.068 125.489 106.008 124.89 104.893 124.762C103.758 124.632 102.613 124.957 101.727 125.681C100.843 126.383 100.244 127.443 100.116 128.558C99.986 129.694 100.311 130.838 101.034 131.724C101.737 132.608 102.797 133.207 103.911 133.335C105.05 133.444 106.194 133.119 107.078 132.417Z" fill="#4F4F4F" fill-opacity="0.3"/>
<path d="M124.517 118.564C125.401 117.862 126 116.802 126.128 115.687C126.258 114.551 125.933 113.407 125.21 112.52C124.508 111.637 123.447 111.037 122.333 110.91C121.197 110.78 120.052 111.104 119.166 111.828C118.282 112.53 117.683 113.591 117.555 114.705C117.425 115.841 117.75 116.986 118.474 117.872C119.176 118.756 120.236 119.355 121.351 119.482C122.465 119.61 123.61 119.285 124.517 118.564Z" fill="#4F4F4F" fill-opacity="0.3"/>
<path d="M159.343 90.8961C161.23 89.3969 161.539 86.6965 160.061 84.8119C158.581 82.9487 155.859 82.6369 153.996 84.1171L153.972 84.1361C152.109 85.6163 151.797 88.3382 153.278 90.2013C154.758 92.0645 157.48 92.3763 159.343 90.8961Z" fill="#4F4F4F" fill-opacity="0.3"/>
<path d="M141.929 104.752C143.816 103.252 144.125 100.552 142.647 98.6674C141.167 96.8042 138.445 96.4924 136.582 97.9726L136.558 97.9916C134.695 99.4718 134.383 102.194 135.864 104.057C137.344 105.92 140.044 106.229 141.929 104.752Z" fill="#4F4F4F" fill-opacity="0.3"/>
<path d="M176.756 77.061C177.64 76.3588 178.239 75.2984 178.367 74.1839C178.497 73.048 178.172 71.9034 177.449 71.0172C176.747 70.1333 175.686 69.5342 174.572 69.4065C173.436 69.2764 172.291 69.6013 171.405 70.3248C170.521 71.027 169.922 72.0875 169.794 73.2019C169.664 74.3378 169.989 75.4824 170.713 76.3687C171.415 77.2525 172.475 77.8517 173.59 77.9793C174.728 78.088 175.873 77.7631 176.756 77.061Z" fill="#4F4F4F" fill-opacity="0.3"/>
<path d="M118.104 146.294C118.988 145.592 119.587 144.532 119.715 143.417C119.845 142.281 119.52 141.137 118.796 140.251C118.094 139.367 117.034 138.768 115.919 138.64C114.783 138.51 113.639 138.835 112.752 139.558C111.869 140.26 111.269 141.321 111.142 142.435C111.012 143.571 111.337 144.716 112.06 145.602C112.762 146.486 113.823 147.085 114.937 147.213C116.052 147.34 117.22 146.997 118.104 146.294Z" fill="#4F4F4F" fill-opacity="0.3"/>
<path d="M135.543 132.442C136.427 131.74 137.026 130.679 137.154 129.565C137.284 128.429 136.959 127.284 136.235 126.398C135.533 125.514 134.473 124.915 133.358 124.787C132.222 124.657 131.078 124.982 130.192 125.706C129.308 126.408 128.709 127.468 128.581 128.583C128.451 129.719 128.776 130.863 129.499 131.75C130.201 132.633 131.262 133.233 132.376 133.36C133.491 133.488 134.635 133.163 135.543 132.442Z" fill="#4F4F4F" fill-opacity="0.3"/>
<path d="M170.368 104.774C172.256 103.275 172.565 100.574 171.087 98.6896C169.607 96.8264 166.885 96.5146 165.022 97.9948L164.998 98.0137C163.135 99.4939 162.823 102.216 164.303 104.079C165.783 105.942 168.505 106.254 170.368 104.774Z" fill="#4F4F4F" fill-opacity="0.3"/>
<path d="M152.936 118.606C154.823 117.107 155.132 114.406 153.655 112.522C152.174 110.658 149.453 110.347 147.589 111.827L147.565 111.846C145.702 113.326 145.391 116.048 146.871 117.911C148.37 119.798 151.07 120.108 152.936 118.606Z" fill="#4F4F4F" fill-opacity="0.3"/>
<path d="M187.782 90.9389C188.666 90.2368 189.265 89.1763 189.393 88.0619C189.523 86.926 189.198 85.7814 188.474 84.8951C187.772 84.0113 186.712 83.4121 185.597 83.2845C184.461 83.1543 183.317 83.4792 182.431 84.2028C181.547 84.9049 180.948 85.9654 180.82 87.0798C180.69 88.2157 181.015 89.3603 181.738 90.2466C182.44 91.1304 183.501 91.7296 184.615 91.8572C185.732 91.9635 186.898 91.6411 187.782 90.9389Z" fill="#4F4F4F" fill-opacity="0.3"/>
<path d="M146.545 146.319C147.429 145.616 148.028 144.556 148.156 143.441C148.286 142.306 147.961 141.161 147.237 140.275C146.535 139.391 145.475 138.792 144.36 138.664C143.224 138.534 142.08 138.859 141.194 139.582C140.31 140.285 139.71 141.345 139.583 142.459C139.455 143.574 139.778 144.74 140.501 145.626C141.203 146.51 142.264 147.109 143.378 147.237C144.514 147.367 145.661 147.021 146.545 146.319Z" fill="#4F4F4F" fill-opacity="0.3"/>
<path d="M181.391 118.653C183.278 117.154 183.588 114.454 182.11 112.569C180.63 110.706 177.908 110.394 176.045 111.874L176.021 111.893C174.158 113.373 173.846 116.095 175.326 117.958C176.806 119.822 179.507 120.131 181.391 118.653Z" fill="#4F4F4F" fill-opacity="0.3"/>
<path d="M163.958 132.485C165.845 130.986 166.154 128.285 164.676 126.401C163.196 124.537 160.474 124.226 158.611 125.706L158.587 125.725C156.724 127.205 156.412 129.927 157.893 131.79C159.394 133.656 162.095 133.965 163.958 132.485Z" fill="#4F4F4F" fill-opacity="0.3"/>
<path d="M198.805 104.818C199.689 104.116 200.288 103.055 200.416 101.941C200.546 100.805 200.221 99.6605 199.497 98.7742C198.795 97.8904 197.735 97.2913 196.62 97.1636C195.484 97.0335 194.34 97.3584 193.453 98.0819C192.57 98.7841 191.97 99.8445 191.843 100.959C191.713 102.095 192.037 103.239 192.761 104.126C193.463 105.01 194.524 105.609 195.638 105.736C196.755 105.843 197.921 105.52 198.805 104.818Z" fill="#4F4F4F" fill-opacity="0.3"/>
<path d="M192.398 132.529C194.285 131.03 194.594 128.329 193.117 126.444C191.636 124.581 188.914 124.269 187.051 125.75L187.027 125.769C185.164 127.249 184.852 129.971 186.333 131.834C187.834 133.7 190.535 134.009 192.398 132.529Z" fill="#4F4F4F" fill-opacity="0.3"/>
<path d="M174.986 146.363C176.873 144.864 177.183 142.164 175.705 140.279C174.225 138.416 171.503 138.104 169.64 139.584L169.616 139.603C167.753 141.083 167.441 143.805 168.921 145.668C170.423 147.534 173.123 147.843 174.986 146.363Z" fill="#4F4F4F" fill-opacity="0.3"/>
<path d="M209.832 118.696C210.716 117.994 211.315 116.933 211.443 115.819C211.573 114.683 211.248 113.539 210.525 112.652C209.822 111.768 208.762 111.169 207.648 111.042C206.512 110.911 205.367 111.236 204.481 111.96C203.597 112.662 202.998 113.722 202.87 114.837C202.74 115.973 203.065 117.117 203.789 118.004C204.491 118.888 205.551 119.487 206.666 119.614C207.782 119.721 208.948 119.398 209.832 118.696Z" fill="#4F4F4F" fill-opacity="0.3"/>
<path d="M203.424 146.406C205.311 144.906 205.621 142.206 204.143 140.321C202.663 138.458 199.941 138.146 198.078 139.627L198.054 139.646C196.191 141.126 195.879 143.848 197.359 145.711C198.861 147.577 201.561 147.886 203.424 146.406Z" fill="#4F4F4F" fill-opacity="0.3"/>
<path d="M220.865 132.552C221.749 131.85 222.348 130.79 222.476 129.675C222.604 128.561 222.281 127.395 221.558 126.509C220.834 125.622 219.795 125.026 218.681 124.898C217.545 124.768 216.4 125.093 215.514 125.816C214.628 126.54 214.031 127.579 213.903 128.693C213.773 129.829 214.098 130.974 214.822 131.86C215.524 132.744 216.584 133.343 217.699 133.471C218.813 133.598 219.979 133.276 220.865 132.552Z" fill="#4F4F4F" fill-opacity="0.3"/>
</svg>
